<svg id="Flat" height="512" viewBox="0 0 512 512" width="512" xmlns="http://www.w3.org/2000/svg"><path d="m224 276h88v46h-88z" fill="#e88604"/><path d="m440 288c0 26.51-25.07007 48-56 48a62.28348 62.28348 0 0 1 -31.59009-8.37c-14.73999-8.64-24.40991-23.17-24.40991-39.63 0-26.51 25.07007-48 56-48a64.1694 64.1694 0 0 1 19.52 3c21.31008 6.79 36.48 24.38 36.48 45z" fill="#eebe33"/><circle cx="416" cy="280" fill="#e2792e" r="8"/><path d="m348.95 207.14-44.95 40.86h-78.33008a57.72845 57.72845 0 0 1 -53.60986-36.37 56.88573 56.88573 0 0 1 -2.47-7.82 57.71254 57.71254 0 0 1 23.40994-61l103-70.81a127.7054 127.7054 0 0 1 -25.90991 77.11v.01l25.41991-14.83c.99-.58 2-1.12 3.03-1.61a45.41672 45.41672 0 0 1 50.41 74.46z" fill="#eebe33"/><g fill="#e2792e"><circle cx="312" cy="160" r="8"/><circle cx="288" cy="192" r="8"/><circle cx="264" cy="184" r="8"/><circle cx="200" cy="176" r="8"/></g><path d="m295.37012 248h-69.7002a57.72845 57.72845 0 0 1 -53.60986-36.37 56.88573 56.88573 0 0 1 -2.47-7.82 93.81332 93.81332 0 0 1 46.40994-11.81c26.35986 0 50.99 10.33 65.89014 27.63a57.27442 57.27442 0 0 1 13.23974 26.93q.13512.72.24024 1.44z" fill="#e88604"/><path d="m288 256c0 17.26-10.04 32.68994-25.82007 42.96-12.5 8.14-28.60986 13.04-46.17993 13.04-.76 0-1.52-.01-2.27-.03-38.71-.93-69.73-25.63-69.73-55.97a45.75786 45.75786 0 0 1 6.76-23.72 61.633 61.633 0 0 1 21.30005-20.65c12.15995-7.29 27.39995-11.63 43.93995-11.63 24.93994 0 46.91992 9.86 59.83008 24.85a48.93429 48.93429 0 0 1 11.42992 23.15 43.29268 43.29268 0 0 1 .74 8z" fill="#eebe33"/><circle cx="208" cy="232" fill="#e2792e" r="8"/><circle cx="232" cy="264" fill="#e2792e" r="8"/><circle cx="240" cy="232" fill="#e2792e" r="8"/><path d="m472 120a23.988 23.988 0 0 1 -38.99 18.73l-17.01 21.27-35.66667 3.61-4.33333-27.61 23.03-23.03a23.99965 23.99965 0 1 1 40.97-16.97c0 .47-.01.93-.04 1.39a23.99225 23.99225 0 0 1 32.04 22.61z" fill="#eedc9a"/><path d="m304 248h-16.74a43.29268 43.29268 0 0 1 .74 8c0 17.26-10.04 32.68994-25.82007 42.96a64.40487 64.40487 0 0 1 12.73-73.19l.92017-.92 78.77978-78.78a45.45479 45.45479 0 0 1 -5.65988 61.07z" fill="#e88604"/><path d="m380.03 303.28-13.8 13.81a65.04832 65.04832 0 0 1 -13.82007 10.54c-14.74001-8.64-24.40993-23.17-24.40993-39.63 0-26.51 25.07007-48 56-48a64.1694 64.1694 0 0 1 19.52 3 80.901 80.901 0 0 1 -23.49 60.28z" fill="#e88604"/><path d="m264 271.43143v.00008a56.56848 56.56848 0 0 0 56.56849 56.56849h.00008a56.5685 56.5685 0 0 0 40-16.56853l13.80414-13.80414a72.485 72.485 0 0 0 20.50186-61.50559v-.00006a72.48505 72.48505 0 0 1 5.13226-38.80419l15.99317-37.31749-40-24-95.43147 95.43147a56.5685 56.5685 0 0 0 -16.56853 39.99996z" fill="#eebe33"/><circle cx="296" cy="264" fill="#e2792e" r="8"/><circle cx="328" cy="280" fill="#e2792e" r="8"/><circle cx="352" cy="240" fill="#e2792e" r="8"/><path d="m216 296a57.28282 57.28282 0 0 1 -2.27 15.97c-38.71-.93-69.73-25.63-69.73-55.97a45.75786 45.75786 0 0 1 6.76-23.72c36.54005 3.04 65.24 30.46 65.24 63.72z" fill="#e88604"/><ellipse cx="144" cy="296" fill="#eebe33" rx="64" ry="56"/><circle cx="120" cy="272" fill="#e2792e" r="8"/><circle cx="160" cy="280" fill="#e2792e" r="8"/><path d="m128 400h256v40h-256z" fill="#c93b3e"/><path d="m64 336h384a0 0 0 0 1 0 0v.00006a63.99994 63.99994 0 0 1 -63.99994 63.99994h-256.00012a63.99994 63.99994 0 0 1 -63.99994-63.99994v-.00006a0 0 0 0 1 0 0z" fill="#d14547"/><rect fill="#e44b4d" height="32" rx="16" width="464" x="24" y="304"/><path d="m286.12012 121.25a127.24912 127.24912 0 0 1 -16.03 27.86v.01l-46.09012 26.88-8.06006-13.82z" fill="#e88604"/></svg>